<?xml version="1.0" encoding="UTF-8" standalone="no"?>
<!-- Created with Inkscape (http://www.inkscape.org/) -->

<svg
   width="9.2924194mm"
   height="9.2924156mm"
   viewBox="0 0 9.2924194 9.2924156"
   version="1.1"
   id="svg1"
   xml:space="preserve"
   xmlns="http://www.w3.org/2000/svg"
   xmlns:svg="http://www.w3.org/2000/svg"><defs
     id="defs1" /><g
     id="layer1"
     transform="translate(-34.708085,-78.323835)"><circle
       style="fill:#008000;fill-opacity:1;stroke-width:0.654088"
       id="circle6"
       cx="39.354294"
       cy="82.970047"
       r="4.6462092" /><path
       style="fill:#ffffff;fill-opacity:1;stroke-width:1"
       d="m 38.223126,83.155325 c 0,0 0.09477,-0.54493 -0.102666,-0.59232 -0.197438,-0.0474 -0.377227,-0.0304 -0.418568,0.11057 -0.02223,0.0758 -0.157951,0.87662 -0.06318,1.33468 0.09477,0.45805 0.497543,0.56072 0.497543,0.56072 0,0 0.221129,0.16585 0.931905,-0.55282 0.710777,-0.71868 1.761146,-1.87172 1.761146,-1.87172 0,0 0.51334,-0.77395 0.134258,-0.78975 -0.379079,-0.0158 -2.140225,1.75325 -2.140225,1.75325 0,0 -0.600213,0.51217 -0.600213,0.0474 z"
       id="path6" /></g></svg>
